# xmcd
#
# Track frame offsets:
#	150
#	11573
#	28973
#	45582
#	62376
#	81413
#	95560
#	111485
#	123322
#	139275
#	150996
#	171991
#
# Disc length: 2455 seconds
#
# Revision: 1
# Processed by: cddbd v1.5.2PL0 Copyright (c) Steve Scherf et al.
# Submitted via: EasyCDDAExtractor 11.9.9.666
#
DISCID=9f09950c
DTITLE=Leland Martin - The Early Years
DYEAR=2008
DGENRE=Country
TTITLE0=I Need A Little Good Luck Band
TTITLE1=Last Whiskey Trip
TTITLE2=Silent Love
TTITLE3=Rover
TTITLE4=If You Only Knew Jesus
TTITLE5=Stupid Little Cupid
TTITLE6=Dreams Still Come True
TTITLE7=Fairytales
TTITLE8=Our Little Boy
TTITLE9=Home Is Where The Honky Tonk Is
TTITLE10=Who Am I To Say
TTITLE11=Think Before You Drink
EXTD=
EXTT0=
EXTT1=
EXTT2=
EXTT3=
EXTT4=
EXTT5=
EXTT6=
EXTT7=
EXTT8=
EXTT9=
EXTT10=
EXTT11=
PLAYORDER=
